<?xml version="1.0" encoding="UTF-8"?>
<!DOCTYPE svg PUBLIC "-//W3C//DTD SVG 1.1//EN" "http://www.w3.org/Graphics/SVG/1.1/DTD/svg11.dtd">
<!-- Creator: CorelDRAW 2018 (64-Bit) -->
<svg xmlns="http://www.w3.org/2000/svg" xml:space="preserve" width="7551px" height="3000px" version="1.1" style="shape-rendering:geometricPrecision; text-rendering:geometricPrecision; image-rendering:optimizeQuality; fill-rule:evenodd; clip-rule:evenodd"
viewBox="0 0 7551 2999.945"
 xmlns:xlink="http://www.w3.org/1999/xlink">
 <defs>
  <style type="text/css">
   <![CDATA[
    .fil0 {fill:none}
    .fil3 {fill:#161F28}
    .fil4 {fill:#3A54D6}
    .fil1 {fill:#161F28;fill-rule:nonzero}
    .fil2 {fill:#3A54D6;fill-rule:nonzero}
   ]]>
  </style>
 </defs>
 <g id="Layer_x0020_1">
  <metadata id="CorelCorpID_0Corel-Layer"/>
  <rect class="fil0" width="7551" height="2999.945"/>
  <g id="_1772493877376">
   <path class="fil1" d="M2137.448 1192.794c-57.986,0 -130.17,26.033 -173.957,69.819l0 -302.946 -176.323 0 0 895.819 176.323 0 0 -344.364c-3.549,-142.006 75.738,-171.59 124.256,-171.59 68.636,0 126.622,30.768 126.622,131.355l0 384.599 179.874 0 0 -384.599c0,-169.223 -68.637,-278.093 -256.795,-278.093zm835.376 662.692l175.141 0 0 -650.859 -175.141 0 0 67.453c-33.134,-43.785 -102.954,-81.654 -197.624,-81.654 -205.908,0 -326.612,152.657 -326.612,339.63 0,186.975 120.704,339.631 326.612,339.631 92.304,0 170.406,-42.603 197.624,-79.286l0 65.085zm7.1 -325.43c0,113.605 -68.636,183.424 -178.689,183.424 -108.872,0 -178.692,-80.47 -178.692,-183.424 0,-106.503 66.271,-184.607 178.692,-184.607 110.053,0 178.689,76.92 178.689,184.607zm256.704 325.43l177.507 0 0 -894.635 -177.507 0 0 894.635zm434.211 0l0 -65.085c27.216,36.683 105.319,79.286 197.623,79.286 205.91,0 326.614,-152.656 326.614,-339.631 0,-186.973 -120.704,-339.63 -326.614,-339.63 -94.669,0 -164.489,37.869 -197.623,81.654l0 -311.229 -175.141 0 0 894.635 175.141 0zm-7.102 -325.43c0,-107.687 68.637,-184.607 178.692,-184.607 112.421,0 178.69,78.104 178.69,184.607 0,102.954 -69.82,183.424 -178.69,183.424 -110.055,0 -178.692,-69.819 -178.692,-183.424z"/>
   <path class="fil2" d="M4929.503 1797.501l0 -592.874 -175.141 0 0 46.152c-46.152,-37.868 -106.505,-57.985 -182.24,-57.985 -213.01,0 -341.997,146.738 -341.997,326.612 0,178.691 128.987,325.43 341.997,325.43 75.735,0 136.088,-20.117 182.24,-57.986l0 10.651c0,60.352 -16.568,147.922 -157.389,151.473 -91.12,2.367 -170.408,-31.951 -221.293,-72.187l-86.387 125.438c82.837,65.087 189.341,98.222 311.229,98.222 208.275,0 328.981,-115.972 328.981,-302.946zm-346.731 -101.771c-112.421,0 -178.691,-74.554 -178.691,-176.324 0,-99.404 69.819,-176.323 178.691,-176.323 100.587,0 178.69,75.736 178.69,176.323 0,99.405 -78.103,176.324 -178.69,176.324zm757.273 176.324c190.524,0 278.095,-115.971 304.129,-151.473l-137.273 -79.286c-20.116,22.484 -68.635,75.736 -166.856,75.736 -35.501,0 -156.207,-11.834 -177.507,-118.339l513.588 0c0,0 3.549,-31.951 3.549,-81.653 -5.916,-209.458 -172.774,-323.062 -339.63,-323.062 -121.889,0 -353.83,71.001 -353.83,338.446 0,267.445 227.209,339.631 353.83,339.631zm-1.183 -523.055c88.753,0 146.739,65.085 153.839,124.255l-325.429 0c7.1,-66.269 69.819,-124.255 171.59,-124.255zm404.625 506.487l177.508 0 0 -649.675 -177.508 0 0 649.675zm533.615 15.385c170.407,0 267.444,-76.921 267.444,-211.826 0,-168.04 -149.107,-186.975 -259.16,-205.908 -28.402,-3.551 -123.072,-14.201 -123.072,-57.986 0,-31.951 50.885,-48.519 85.203,-48.519 72.187,0 136.089,31.953 184.607,60.353l92.304 -120.704c-85.204,-63.904 -168.039,-93.487 -270.993,-93.487 -62.72,0 -268.628,15.382 -268.628,205.908 0,163.307 169.222,189.34 257.976,204.724 34.319,5.916 125.44,10.65 125.44,54.435 0,33.135 -39.053,57.986 -93.488,57.986 -78.102,0 -159.756,-35.501 -210.642,-69.82l-92.304 123.073c71.003,56.803 165.674,101.771 305.313,101.771zm539.53 -521.872l130.173 0 0 -155.022 -130.173 0 0 -173.957 -175.141 0 0 173.957 -79.286 0 0 155.022 79.286 0 0 360.932c0,137.272 84.021,162.123 221.293,162.123 24.851,0 57.986,-2.367 79.287,-4.734l0 -149.106c-10.651,1.184 -24.852,2.367 -44.969,2.367 -79.286,0 -80.47,-61.536 -80.47,-97.037l0 -274.545z"/>
   <circle class="fil3" transform="matrix(0 4.49777 -4.49777 0 5832.24 1040.73)" r="22.101"/>
   <path class="fil4" d="M911.999 663.357c413.452,44.053 663.188,328.115 663.188,777.859l0 245.376 0 149.867c0,50.789 -41.554,92.342 -92.342,92.342l-0.002 0c-50.788,0 -92.342,-41.553 -92.342,-92.342 0,-21.289 -17.418,-38.706 -38.707,-38.706l-0.003 0c-21.288,0 -38.706,17.417 -38.706,38.706l0 60.494 0 149.868c0,50.788 -41.554,92.342 -92.342,92.342l-0.002 0c-50.788,0 -92.342,-41.554 -92.342,-92.342l0 -33.026c0,-21.29 -17.418,-38.707 -38.707,-38.707l-0.002 0c-21.291,0 -38.707,17.417 -38.707,38.707l0 66.05 0 99.235c0,50.788 -41.554,92.342 -92.342,92.342l-0.002 0c-50.789,0 -92.342,-41.554 -92.342,-92.342l0 -99.235 0 -9.409c0,-21.29 -17.416,-38.706 -38.706,-38.706l-0.003 0c-21.291,0 -38.707,17.416 -38.707,38.706l0 9.409c0,50.788 -41.554,92.342 -92.342,92.342l-0.002 0c-50.788,0 -92.342,-41.554 -92.342,-92.342l0 -149.868 0 -1049.44c0,-134.668 104.797,-238.809 307.804,-217.18zm-215.462 1540.047l0 0c37.41,0 68.017,30.607 68.017,68.018l0 0.002c0,37.411 -30.607,68.018 -68.017,68.018l0 0c-37.412,0 -68.019,-30.607 -68.019,-68.018l0 -0.002c0,-37.411 30.607,-68.018 68.019,-68.018zm786.308 -242.567l0 0c37.409,0 68.016,30.607 68.016,68.018l0 0.001c0,37.412 -30.607,68.019 -68.016,68.019l0 0c-37.414,0 -68.02,-30.607 -68.02,-68.019l0 -0.001c0,-37.411 30.606,-68.018 68.02,-68.018zm-205.095 -753.902c-69.178,79.028 -190.81,-40.511 -312.349,47.265 -121.539,87.776 4.231,239.041 127.984,236.327 123.753,-2.714 173.11,-150.798 220.376,-87.778 47.265,63.02 18.098,193.562 -89.937,261.084 -108.036,67.521 -220.58,-71.959 -225.08,85.591 -4.501,157.549 -63.406,141.732 -155.685,141.732 -92.279,0 -105.783,-40.514 -105.783,-128.291 0,-87.778 0,-106.909 0,-132.792 0,-25.884 25.323,-35.45 56.269,-4.502 30.946,30.948 125.331,-42.057 49.933,-117.456 -75.398,-75.399 -106.202,-41.221 -106.202,-138.002 0,-96.781 0,-354.061 0,-455.344 0,-101.283 122.879,-107.179 261.922,-81.027 138.946,26.136 416.332,215.798 278.552,373.193z"/>
  </g>
 </g>
</svg>
